<?xml version="1.0" encoding="UTF-8"?>
<svg version="1.1" viewBox="0 0 2048 2048" width="512" height="512" xmlns="http://www.w3.org/2000/svg">
<path transform="translate(1023)" d="m0 0 4 1 297 297 2 1 421 1 1 1 1 422 297 297 2 1v5l-12 11-286 286-1 2-1 422-5 1-418 1-8 7-234 234-5 6-7 6-39 39-6 7-4-1-7-8-288-288-3-2-423-1-1-1-1-423-9-10-290-290 6-7 292-292 1-2 1-423 423-1 8-7z" fill="#8A3BFC"/>
<path transform="translate(1025,299)" d="m0 0h224l498 1 1 1 1 422 297 297 2 1v5l-12 11-287 287h-2l-2 4-377 377-8 7-19 19-5 6h-2l-2 4-6 5-3 2h-298l-1-1v-451h9v-2l24-2 32-4 19-4 16-4 26-8 28-10 10-5 11-5 23-11 10-6 11-6 32-20 10-7 14-10 12-9 13-10 14-12 11-9 13-12 12-11 12-12h2l2-4 17-17 7-8 9-10 18-22 2-3h2l2-5 2-3h2l1-4h2l2-5h2l2-5h2l2-4v-6l-4-5-11-14-7-9-9-11-7-9-14-15-16-17-9-10-7-7-8-7-17-16-8-7-14-12-14-11-18-14-13-9-15-10-22-14-21-12v-2l-5-1-15-8-26-12-24-10-33-11-29-7-28-4-19-2v-2l-27-1-1-3 1-449z" fill="#6211CD"/>
<path transform="translate(1016,753)" d="m0 0h23l39 4 24 4 28 7 33 11 41 18 19 10 7 3v2l6 2 20 12 20 13 15 10 19 14 14 11 17 14 12 11 8 7 13 12 15 14 16 17 9 10 8 8 7 8 9 12 10 12 11 14 6 8v6l-3 4h-2l-2 5h-2l-2 5h-2l-1 4h-2l-4 8-3 3-9 11-12 14-2 3h-2l-2 4-16 17-33 33-8 7-12 11-11 9-13 11-12 9-19 14-15 10-13 9-9 5-11 7-11 6-12 7-21 10-15 7-14 6-35 12-17 5-29 6-41 5-15 1h-12l-34-3-17-2-13-2-23-5-31-9-28-10-35-16-25-13-28-17-17-11-16-11-19-14-16-13-11-9-15-13-16-15-12-12-8-7-9-10-8-8-7-8-11-12-9-11-11-14-12-15-6-9v-5l8-10 14-18 13-16 12-14 7-8 15-16 27-27 8-7 11-10 11-9 13-11 17-13 19-14 26-17 23-14 23-13 23-11 19-8 11-5 36-12 25-6 19-4z" fill="#E6ECF2"/>
<path transform="translate(1e3 754)" d="m0 0h20l1 2 1 136 1 50v17l5 1v2h53v1l-120 1v120h43l61 1-3 2-5 1-28 1-3-2-3 2-1 3v201l2 1h-20l-37-4-13-2-23-5-31-9-28-10-35-16-25-13-28-17-17-11-16-11-19-14-16-13-11-9-15-13-16-15-12-12-8-7-9-10-8-8-7-8-11-12-9-11-11-14-12-15-6-9v-5l8-10 14-18 13-16 12-14 7-8 15-16 27-27 8-7 11-10 11-9 13-11 17-13 19-14 26-17 23-14 23-13 23-11 19-8 11-5 36-12 25-6 19-4z" fill="#FDFCFC"/>
<path transform="translate(1023)" d="m0 0 3 1-1 7-1 291-1 1h-172l-128 1v2l-6 4-14 14-7 8-11 11h-2l-2 4-49 49-6 5-6 7-6 5-7 8-184 184h-2l-1 3-8 7-22 22-6 7-6 5-7 8-31 31-6 5-27 27h-2l-2 4h-2l-1 2v-423l423-1 8-7z" fill="#BB8EFD"/>
<path transform="translate(300,1324)" d="m0 0 7 6 16 16v2l4 2v2l4 2 4 4v2l4 2 4 4v2l4 2v2l4 2v2l4 2v2l4 2v2l4 2 16 16v2l4 2v2h2v2h2v2h2v2h2l7 8 15 15 2 1v2h2v2h2v2l4 2v2l4 2v2l4 2 168 168v2l4 2v2h2v2h2l7 8 47 47 2 1v2h2v2h2v2l4 2v2h2v2h2v2h2v2h2v2h2v2h2v2l4 2v2l4 2v2l4 2 23 23 4 5 3 1 129 1h168l2 1v296l3 2-4 1-9-10-287-287-3-2-423-1-1-1z" fill="#BB8EFD"/>
<path transform="translate(1749,724)" d="m0 0 7 6 290 290 2 1v5l-12 11-286 286-2-1-1-237v-116l1-242z" fill="#8A3BFC"/>
<path transform="translate(299,723)" d="m0 0h1v601l-300-300 6-7 292-292z" fill="#AB76FE"/>
<path transform="translate(1326,300)" d="m0 0h421l1 1v421l-8-6-11-12-5-4-54-54v-2h-2l-7-8-31-31-8-7-14-14-7-8-118-118-7-6-5-6-8-7-17-17v-2h-2l-7-8-27-27-8-7-76-76z" fill="#AA75FD"/>
<path transform="translate(1747,1324)" d="m0 0 2 1-1 422-5 1h-59l-357-1 3-5 4-5 5-4 7-8 20-20 8-7 372-372z" fill="#AA75FD"/>
<path transform="translate(870,1262)" d="m0 0 5 1 28 10 31 9 27 6 3 3v37l-1 298-1 1h-185l-9-5-128-128 1-3 8-7 215-215 4-5h2z" fill="#633C82"/>
<path transform="translate(924,420)" d="m0 0h38l1 1v338l-36 8-26 8-27 10h-5l-1-3-7-6-6-6v-2l-4-2-15-15-5-6-7-6-5-6-7-6-5-6-6-5-6-7-6-5-6-7-6-5-6-7-6-5-6-7-6-5-6-7-6-5-6-7-6-5-6-7-6-5-6-7-6-5-6-7-6-5-6-7-6-5-6-7-6-5-6-7-8-7-12-12v-2h-2l-1-3 17-16 5-6 8-7 87-87 2-3h2l2-4 7-6 3-3z" fill="#633C81"/>
<path transform="translate(1085,420)" d="m0 0h188l6 5 7 8 116 116 4 3-2 5-211 211-1 2h-2v2l-8 7-3 3-1 3-5-1-27-10-27-8-36-8 2-1-1-8v-328z" fill="#5A2469"/>
<path transform="translate(1175,1263)" d="m0 0 4 1v3l4 2 223 223-2 4-107 107-7 8-7 7h-2l-2 4-9 6h-92l-92-1-1-1-1-239v-97l5-2 19-4 16-4 26-8z" fill="#5A2469"/>
<path transform="translate(553,640)" d="m0 0 4 2 202 202 2 1-2 4-19 14-14 11-16 13-14 12-13 12-10 9-28 28-7 8-6 7-10 1-198-1-3-2-1-184 2-5 3-5 8-7 3-3h2v-2l8-7 95-95 7-8z" fill="#633C81"/>
<path transform="translate(628,1082)" d="m0 0 7 6 15 16 13 14 8 7 15 15 8 7 10 9 11 9 16 13 16 12 14 10-2 4-7 8-16 14-5 6-7 6-5 6-7 6-5 6-7 6-5 6-7 6-5 6-7 6-5 6-7 6-5 6-7 6-5 6-7 6-5 6-7 6-5 6-7 6-5 6-7 6-5 6-7 6-5 6-7 6-5 6-5 5-3 1v2l-8 7-3 4-4-1-121-121-7-6-4-6 1-188 160-1 42-1 5 1z" fill="#633C82"/>
<path transform="translate(1417,1084)" d="m0 0h210l1 10v177l-3 5-10 9-117 117-3 4-4-2-3-2v-2l-4-2-192-192-2-3-3-2 32-24 11-9 14-12 11-9 9-9 8-7 14-14h2l2-4 17-17 7-8z" fill="#5A2469"/>
<path transform="translate(1493,642)" d="m0 0 4 2 100 100 2 1v2l4 2 8 8v2h2v2h2l7 8 5 6 1 3v144l-1 41-62 1h-130l-10-2h-6l-1 2-12-12-7-8-14-15-16-15-13-12-10-9-11-9-13-11-20-15-15-11 4-1 3-7 7-6 5-6 8-7 161-161 8-7 8-9z" fill="#5A2469"/>
<path transform="translate(701,1725)" d="m0 0 7 6 10 10 4 5 3 1 129 1h168l2 1v296l3 2-4 1-9-10-287-287-3-2-403-1v-1l332-1-2-2 27-4 3-2 2-4 6-2 6 1v-2l7-1z" fill="#AB76FD"/>
<path transform="translate(1023)" d="m0 0 3 1-1 7-1 291-1 1h-172l-128 1v2l-4 1 1-4 6-3z" fill="#AB76FE"/>
<path transform="translate(964,964)" d="m0 0h120v120h-120z" fill="#5A2469"/>
<path transform="translate(1428,401)" d="m0 0h2v2l4 2 4 3v2h2v2h2v2l4 2 15 15 4 2v3l4 1 6 7 6 5 5 6 8 7v2l4 2v2l4 2v2l4 2v2l4 2v2l4 2v2l4 2v2l4 2v2l4 2v2l4 2v2l4 2v2l4 2 4 4v2l4 2v2l4 2v2l4 2v2l4 2v2l4 2v2l4 2v2l4 2v2l4 2v2l4 2v2l4 2v2l4 2v2l4 2v2l4 2v2l4 2v2l4 2v2l4 2 4 4v2l4 2 5 6 6 5 4 4v3h2l6 7 5 5 2 4h2v2h2v2h2l4 4v3l2 1-4-1-22-22-8-7-14-14-7-8-118-118-7-6-5-6-8-7-17-17v-2h-2l-7-8-9-9z" fill="#B889FD"/>
<path transform="translate(701,1725)" d="m0 0 7 6 10 10 4 5 3 1-1 2-403-1v-1l332-1-2-2 27-4 3-2 2-4 6-2 6 1v-2l7-1z" fill="#A369FC"/>
<path transform="translate(648,561)" d="m0 0 4 2 15 14 2 1v2h2v2h2v2h2v2l4 2v2l4 2v2l4 2v2l4 2 120 120v2h2v2h2v2h2v2h2l7 8 4 4v2l4 2 5 6 6 5 7 8 2 3-4-1-14-14-5-6-7-6-5-6-7-6-5-6-6-5-6-7-6-5-6-7-6-5-6-7-6-5-6-7-6-5-6-7-6-5-6-7-6-5-6-7-6-5-6-7-6-5-6-7-6-5-6-7-6-5-6-7-6-5-6-7-8-7-7-7z" fill="#5A266B"/>
<path transform="translate(1088,972)" d="m0 0 2 1 1 2 1 32v38l-1 26-2 6-3 1-2 3v-105z" fill="#FDFCFC"/>
<path transform="translate(1427,977)" d="m0 0 5 2 10 13 6 7 11 14 3 5-1 2-6-1-2-4h-2v-2l-4-2-4-4-6-11-4-5-5-10v-2l-2-1z" fill="#F8F6FB"/>
<path transform="translate(661,1512)" d="m0 0 4 2 5 5 1 3 4 2 26 26 6 5 5 6 7 6 4 4v3l4 2v2l4 2v2h2v2l-4-1-68-68z" fill="#5C2A6F"/>
<path transform="translate(451,1302)" d="m0 0 3 2v2l4 2 3 2v2h2v2l4 2v2l4 2v2l4 2 24 24v2h2v2h2v2h2v2h2v2h2l4 4v2l-4-1-58-58z" fill="#5C2A6F"/>
<path transform="translate(1028,1085)" d="m0 0h40l-3 2-5 1-28 1z" fill="#FEFDFD"/>
<path transform="translate(1408,955)" d="m0 0 4 2 10 10 5 6v3h-2l-7-8-6-5-4-5z" fill="#F3F1F9"/>
<path transform="translate(685,1140)" d="m0 0 5 3 7 7 11 9 9 8h-3l-13-11-11-9-5-5z" fill="#5D2A73"/>
<path transform="translate(1339,889)" d="m0 0 4 1 10 9 2 5-4-2-5-5-3-1-3-5z" fill="#F8F9FA"/>
<path transform="translate(1233,814)" d="m0 0 4 1 8 5-2 4-3-1v-3l-5-1-1-2z" fill="#F9F9FA"/>
<path transform="translate(1254,827)" d="m0 0 5 1 5 3v4h-5l-4-4z" fill="#FAFAFB"/>
<path transform="translate(1455,1034)" d="m0 0h2l-2 5-1 2h-2l-1 3-2-1 3-7z" fill="#F6F5FA"/>
<path transform="translate(503,1354)" d="m0 0h2v2h2v2h2l4 4v2l-4-1-6-6z" fill="#5D2D72"/>
<path transform="translate(1268,836)" d="m0 0 5 1 3 2-2 4-5-3z" fill="#FAFAFB"/>
<path transform="translate(523,1374)" d="m0 0 6 4 4 4v2l-4-1-6-6z" fill="#5C2A6F"/>
<path transform="translate(717,1168)" d="m0 0 4 2 10 8-2 1-12-9z" fill="#5D2B70"/>
<path transform="translate(1295,1193)" d="m0 0v3l-7 5h-2v-4l6-2z" fill="#F3F1FA"/>
</svg>
